<svg width="16" height="16" viewBox="0 0 16 16" fill="none" xmlns="http://www.w3.org/2000/svg">
<path d="M2.31955 12.7338C1.91484 13.1096 1.8914 13.7423 2.26721 14.147C2.64301 14.5517 3.27574 14.5751 3.68045 14.1993L2.31955 12.7338ZM14.7326 3.5369C14.7531 2.98499 14.3223 2.52101 13.7703 2.50057L4.77651 2.16747C4.2246 2.14703 3.76063 2.57786 3.74018 3.12977C3.71974 3.68168 4.15058 4.14566 4.70249 4.1661L12.697 4.46219L12.4009 12.4567C12.3805 13.0086 12.8113 13.4726 13.3632 13.493C13.9151 13.5135 14.3791 13.0826 14.3995 12.5307L14.7326 3.5369ZM3.68045 14.1993L14.4138 4.23268L13.0529 2.76709L2.31955 12.7338L3.68045 14.1993Z" fill="#6D7582"/>
</svg>
