<svg width="40" height="40" viewBox="0 0 40 40" fill="none" xmlns="http://www.w3.org/2000/svg">
<path fill-rule="evenodd" clip-rule="evenodd" d="M14.1752 8.20102C14.1752 6.98606 15.1613 6 16.3763 6H23.2938C24.5087 6 25.4948 6.98606 25.4948 8.20102V11.0309H31.469C32.6839 11.0309 33.67 12.017 33.67 13.2319V31.469C33.67 32.0527 33.4381 32.6126 33.0253 33.0253C32.6126 33.4381 32.0527 33.67 31.469 33.67H8.20102C7.61728 33.67 7.05744 33.4381 6.64466 33.0253C6.23189 32.6126 6 32.0527 6 31.469V13.2319C6 12.017 6.98606 11.0309 8.20102 11.0309H14.1752V8.20102ZM7.88659 21.0801V31.469C7.88659 31.6425 8.02746 31.7834 8.20102 31.7834H31.469C31.5524 31.7834 31.6323 31.7503 31.6913 31.6913C31.7503 31.6323 31.7834 31.5524 31.7834 31.469V21.0801C30.8184 21.9018 29.592 22.3522 28.3247 22.3505H11.3453C10.078 22.3522 8.85156 21.9018 7.88659 21.0801ZM31.7834 17.0051C31.7834 17.9224 31.419 18.8022 30.7704 19.4508C30.1217 20.0995 29.242 20.4639 28.3247 20.4639H11.3453C10.428 20.4639 9.54828 20.0995 8.89964 19.4508C8.25099 18.8022 7.88659 17.9224 7.88659 17.0051V13.2319C7.88659 13.1485 7.91972 13.0686 7.97869 13.0096C8.03765 12.9506 8.11763 12.9175 8.20102 12.9175H31.469C31.5524 12.9175 31.6323 12.9506 31.6913 13.0096C31.7503 13.0686 31.7834 13.1485 31.7834 13.2319V17.0051ZM23.6082 8.20102V11.0309H16.0618V8.20102C16.0618 8.11763 16.0949 8.03765 16.1539 7.97869C16.2129 7.91972 16.2929 7.88659 16.3763 7.88659H23.2938C23.3771 7.88659 23.4571 7.91972 23.5161 7.97869C23.5751 8.03765 23.6082 8.11763 23.6082 8.20102Z" fill="#6D7582"/>
</svg>
