<svg width="40" height="40" viewBox="0 0 40 40" fill="none" xmlns="http://www.w3.org/2000/svg">
<path d="M8.97475 9.30387C8.97475 9.1221 9.1221 8.97475 9.30387 8.97475H27.0766C27.2584 8.97475 27.4057 9.1221 27.4057 9.30387V22.4689C27.4057 23.0142 27.8478 23.4562 28.3931 23.4562C28.9384 23.4562 29.3805 23.0142 29.3805 22.4689V9.30387C29.3805 8.03148 28.349 7 27.0766 7H9.30387C8.03148 7 7 8.03148 7 9.30387V31.0261C7 32.2985 8.03148 33.33 9.30387 33.33H18.5194C19.0647 33.33 19.5067 32.8879 19.5067 32.3426C19.5067 31.7973 19.0647 31.3552 18.5194 31.3552H9.30387C9.1221 31.3552 8.97475 31.2079 8.97475 31.0261V9.30387Z" fill="#6D7582"/>
<path d="M12.5951 13.5825C12.0498 13.5825 11.6077 14.0246 11.6077 14.5699C11.6077 15.1152 12.0498 15.5573 12.5951 15.5573H23.7854C24.3307 15.5573 24.7727 15.1152 24.7727 14.5699C24.7727 14.0246 24.3307 13.5825 23.7854 13.5825H12.5951Z" fill="#6D7582"/>
<path d="M11.6077 19.8359C11.6077 19.2906 12.0498 18.8485 12.5951 18.8485H18.5194C19.0647 18.8485 19.5067 19.2906 19.5067 19.8359C19.5067 20.3812 19.0647 20.8232 18.5194 20.8232H12.5951C12.0498 20.8232 11.6077 20.3812 11.6077 19.8359Z" fill="#6D7582"/>
<path d="M33.0408 25.8001C33.4264 25.4145 33.4264 24.7893 33.0408 24.4037C32.6552 24.0181 32.03 24.0181 31.6444 24.4037L25.1019 30.9463L22.5088 28.3532C22.1232 27.9676 21.498 27.9676 21.1124 28.3532C20.7269 28.7388 20.7269 29.364 21.1124 29.7496L24.4037 33.0408C24.7893 33.4264 25.4145 33.4264 25.8001 33.0408L33.0408 25.8001Z" fill="#6D7582"/>
</svg>
