<svg width="40" height="40" viewBox="0 0 40 40" fill="none" xmlns="http://www.w3.org/2000/svg">
<path fill-rule="evenodd" clip-rule="evenodd" d="M11.7254 11.2727C12.0915 11.6363 12.0915 12.2258 11.7254 12.5894L4.26333 20L11.7254 27.4106C12.0915 27.7742 12.0915 28.3637 11.7254 28.7273C11.3593 29.0909 10.7657 29.0909 10.3996 28.7273L2.27459 20.6583C1.90847 20.2947 1.90847 19.7053 2.27459 19.3417L10.3996 11.2727C10.7657 10.9091 11.3593 10.9091 11.7254 11.2727Z" fill="#6D7582"/>
<path fill-rule="evenodd" clip-rule="evenodd" d="M28.2746 11.2727C27.9085 11.6363 27.9085 12.2258 28.2746 12.5894L35.7367 20L28.2746 27.4106C27.9085 27.7742 27.9085 28.3637 28.2746 28.7273C28.6407 29.0909 29.2343 29.0909 29.6004 28.7273L37.7254 20.6583C38.0915 20.2947 38.0915 19.7053 37.7254 19.3417L29.6004 11.2727C29.2343 10.9091 28.6407 10.9091 28.2746 11.2727Z" fill="#6D7582"/>
<line x1="16.384" y1="30.727" x2="23.727" y2="9.61598" stroke="#6D7582" stroke-width="2" stroke-linecap="round"/>
</svg>
