<svg width="20" height="15" viewBox="0 0 20 15" fill="none" xmlns="http://www.w3.org/2000/svg">
<path d="M16.1802 1.1767C14.9743 0.632864 13.6817 0.230896 12.33 0.00232524C12.3179 1.42516e-05 12.3055 0.00150354 12.2943 0.00658716C12.2832 0.0116708 12.2739 0.0200972 12.2677 0.0306995C12.1022 0.321536 11.9178 0.700647 11.7885 1.00015C10.3549 0.785956 8.89741 0.785956 7.46379 1.00015C7.31982 0.668222 7.15747 0.344569 6.97749 0.0306995C6.97139 0.0199667 6.96216 0.0113496 6.95104 0.00599824C6.93991 0.000646826 6.92742 -0.00118448 6.91522 0.000748823C5.5643 0.229319 4.27169 0.631288 3.065 1.17592C3.05462 1.18027 3.04581 1.1877 3.03978 1.1972C0.586979 4.80309 -0.0853328 8.31992 0.244912 11.7926C0.245831 11.8011 0.248471 11.8094 0.252671 11.8168C0.256872 11.8243 0.262545 11.8308 0.269345 11.836C1.70098 12.8783 3.29777 13.6723 4.99287 14.1847C5.00469 14.1884 5.01732 14.1884 5.02914 14.1847C5.04095 14.181 5.05138 14.1739 5.05908 14.1642C5.42321 13.6756 5.74794 13.1593 6.02538 12.617C6.04193 12.5855 6.02616 12.5477 5.99306 12.5351C5.4839 12.3433 4.99057 12.112 4.5176 11.8431C4.5091 11.8382 4.50194 11.8313 4.49676 11.823C4.49158 11.8147 4.48854 11.8053 4.48791 11.7955C4.48729 11.7857 4.4891 11.776 4.49318 11.7671C4.49726 11.7582 4.50348 11.7504 4.5113 11.7445C4.61061 11.6712 4.70991 11.5948 4.8045 11.5183C4.81301 11.5115 4.82326 11.5071 4.83412 11.5057C4.84497 11.5043 4.856 11.5059 4.86597 11.5105C7.96113 12.9008 11.3132 12.9008 14.3721 11.5105C14.3821 11.5057 14.3933 11.5038 14.4043 11.5051C14.4153 11.5063 14.4257 11.5106 14.4344 11.5175C14.529 11.5948 14.6275 11.6712 14.7276 11.7445C14.7355 11.7503 14.7418 11.7579 14.746 11.7668C14.7502 11.7756 14.7522 11.7853 14.7517 11.7951C14.7513 11.8048 14.7484 11.8143 14.7433 11.8227C14.7383 11.8311 14.7313 11.8381 14.7229 11.8431C14.2515 12.1142 13.7613 12.3435 13.2466 12.5343C13.2387 12.5372 13.2315 12.5417 13.2255 12.5476C13.2195 12.5534 13.2148 12.5605 13.2117 12.5684C13.2087 12.5762 13.2073 12.5846 13.2078 12.593C13.2082 12.6014 13.2104 12.6096 13.2143 12.617C13.4981 13.1585 13.8228 13.674 14.1798 14.1634C14.1872 14.1735 14.1976 14.181 14.2094 14.1849C14.2213 14.1889 14.2341 14.1891 14.246 14.1855C15.944 13.6745 17.5434 12.8801 18.9766 11.836C18.9836 11.8311 18.9895 11.8248 18.9939 11.8174C18.9982 11.8101 19.0009 11.8019 19.0019 11.7934C19.396 7.77845 18.3414 4.28999 16.2046 1.19877C16.1994 1.18873 16.1907 1.1809 16.1802 1.1767ZM6.48803 9.67795C5.55641 9.67795 4.78794 8.83539 4.78794 7.80209C4.78794 6.76801 5.54144 5.92624 6.48803 5.92624C7.44172 5.92624 8.2031 6.7751 8.18812 7.80209C8.18812 8.83618 7.43463 9.67795 6.48803 9.67795V9.67795ZM12.7737 9.67795C11.8413 9.67795 11.0736 8.83539 11.0736 7.80209C11.0736 6.76801 11.8263 5.92624 12.7737 5.92624C13.7274 5.92624 14.4888 6.7751 14.4738 7.80209C14.4738 8.83618 13.7282 9.67795 12.7737 9.67795V9.67795Z" fill="white" fill-opacity="0.6"/>
<path d="M16.1802 1.1767C14.9743 0.632864 13.6817 0.230896 12.33 0.00232524C12.3179 1.42516e-05 12.3055 0.00150354 12.2943 0.00658716C12.2832 0.0116708 12.2739 0.0200972 12.2677 0.0306995C12.1022 0.321536 11.9178 0.700647 11.7885 1.00015C10.3549 0.785956 8.89741 0.785956 7.46379 1.00015C7.31982 0.668222 7.15747 0.344569 6.97749 0.0306995C6.97139 0.0199667 6.96216 0.0113496 6.95104 0.00599824C6.93991 0.000646826 6.92742 -0.00118448 6.91522 0.000748823C5.5643 0.229319 4.27169 0.631288 3.065 1.17592C3.05462 1.18027 3.04581 1.1877 3.03978 1.1972C0.586979 4.80309 -0.0853328 8.31992 0.244912 11.7926C0.245831 11.8011 0.248471 11.8094 0.252671 11.8168C0.256872 11.8243 0.262545 11.8308 0.269345 11.836C1.70098 12.8783 3.29777 13.6723 4.99287 14.1847C5.00469 14.1884 5.01732 14.1884 5.02914 14.1847C5.04095 14.181 5.05138 14.1739 5.05908 14.1642C5.42321 13.6756 5.74794 13.1593 6.02538 12.617C6.04193 12.5855 6.02616 12.5477 5.99306 12.5351C5.4839 12.3433 4.99057 12.112 4.5176 11.8431C4.5091 11.8382 4.50194 11.8313 4.49676 11.823C4.49158 11.8147 4.48854 11.8053 4.48791 11.7955C4.48729 11.7857 4.4891 11.776 4.49318 11.7671C4.49726 11.7582 4.50348 11.7504 4.5113 11.7445C4.61061 11.6712 4.70991 11.5948 4.8045 11.5183C4.81301 11.5115 4.82326 11.5071 4.83412 11.5057C4.84497 11.5043 4.856 11.5059 4.86597 11.5105C7.96113 12.9008 11.3132 12.9008 14.3721 11.5105C14.3821 11.5057 14.3933 11.5038 14.4043 11.5051C14.4153 11.5063 14.4257 11.5106 14.4344 11.5175C14.529 11.5948 14.6275 11.6712 14.7276 11.7445C14.7355 11.7503 14.7418 11.7579 14.746 11.7668C14.7502 11.7756 14.7522 11.7853 14.7517 11.7951C14.7513 11.8048 14.7484 11.8143 14.7433 11.8227C14.7383 11.8311 14.7313 11.8381 14.7229 11.8431C14.2515 12.1142 13.7613 12.3435 13.2466 12.5343C13.2387 12.5372 13.2315 12.5417 13.2255 12.5476C13.2195 12.5534 13.2148 12.5605 13.2117 12.5684C13.2087 12.5762 13.2073 12.5846 13.2078 12.593C13.2082 12.6014 13.2104 12.6096 13.2143 12.617C13.4981 13.1585 13.8228 13.674 14.1798 14.1634C14.1872 14.1735 14.1976 14.181 14.2094 14.1849C14.2213 14.1889 14.2341 14.1891 14.246 14.1855C15.944 13.6745 17.5434 12.8801 18.9766 11.836C18.9836 11.8311 18.9895 11.8248 18.9939 11.8174C18.9982 11.8101 19.0009 11.8019 19.0019 11.7934C19.396 7.77845 18.3414 4.28999 16.2046 1.19877C16.1994 1.18873 16.1907 1.1809 16.1802 1.1767ZM6.48803 9.67795C5.55641 9.67795 4.78794 8.83539 4.78794 7.80209C4.78794 6.76801 5.54144 5.92624 6.48803 5.92624C7.44172 5.92624 8.2031 6.7751 8.18812 7.80209C8.18812 8.83618 7.43463 9.67795 6.48803 9.67795V9.67795ZM12.7737 9.67795C11.8413 9.67795 11.0736 8.83539 11.0736 7.80209C11.0736 6.76801 11.8263 5.92624 12.7737 5.92624C13.7274 5.92624 14.4888 6.7751 14.4738 7.80209C14.4738 8.83618 13.7282 9.67795 12.7737 9.67795V9.67795Z" fill="#6D7582"/>
</svg>
