<svg width="20" height="20" viewBox="0 0 20 20" fill="none" xmlns="http://www.w3.org/2000/svg">
<path d="M4 5C5.10457 5 6 4.10457 6 3C6 1.89543 5.10457 1 4 1C2.89543 1 2 1.89543 2 3C2 4.10457 2.89543 5 4 5Z" fill="#6D7582"/>
<path d="M7.48852 6.24116V15.9992H10.8565V11.1736C10.8565 9.90032 11.1228 8.6672 12.8779 8.6672C14.6088 8.6672 14.6302 10.123 14.6302 11.254V16H18V10.6487C18 8.0201 17.3709 6 13.9555 6C12.3158 6 11.2166 6.80949 10.7672 7.57556H10.7216V6.24116H7.48852ZM2 6.24116H5.37336V15.9992H2V6.24116Z" fill="#6D7582"/>
</svg>
