<svg width="16" height="17" viewBox="0 0 16 17" fill="none" xmlns="http://www.w3.org/2000/svg">
<path d="M2.31955 13.2338C1.91484 13.6096 1.8914 14.2423 2.26721 14.647C2.64301 15.0517 3.27574 15.0751 3.68045 14.6993L2.31955 13.2338ZM14.7326 4.0369C14.7531 3.48499 14.3223 3.02101 13.7703 3.00057L4.77651 2.66747C4.2246 2.64703 3.76063 3.07786 3.74018 3.62977C3.71974 4.18168 4.15058 4.64566 4.70249 4.6661L12.697 4.96219L12.4009 12.9567C12.3805 13.5086 12.8113 13.9726 13.3632 13.993C13.9151 14.0135 14.3791 13.5826 14.3995 13.0307L14.7326 4.0369ZM3.68045 14.6993L14.4138 4.73268L13.0529 3.26709L2.31955 13.2338L3.68045 14.6993Z" fill="#101010"/>
</svg>
