<svg width="57" height="41" viewBox="0 0 57 41" fill="none" xmlns="http://www.w3.org/2000/svg">
<path d="M10.616 25.4444C10.3831 25.4444 10.2279 25.5802 10.2085 25.8131L9.41299 34.5304H9.31597L7.41425 25.7936C7.35604 25.5608 7.22021 25.4444 6.98736 25.4444H5.8231C5.59025 25.4444 5.45442 25.5608 5.39621 25.7936L3.47529 34.5304H3.37827L2.6214 25.8131C2.602 25.5802 2.44676 25.4444 2.21391 25.4444H0.37051C0.118254 25.4444 -0.0175755 25.5996 0.00182873 25.8519L1.59308 40.2353C1.61248 40.4875 1.74831 40.6039 2.00057 40.6039H3.94099C4.17384 40.6039 4.30967 40.4875 4.36788 40.2741L6.40533 31.484L8.42337 40.2547C8.48158 40.4875 8.61741 40.6039 8.85026 40.6039H10.7519C11.0041 40.6039 11.14 40.4875 11.1594 40.2353L12.828 25.8519C12.8474 25.5996 12.7116 25.4444 12.4594 25.4444H10.616Z" fill="white"/>
<path d="M14.6764 37.8097C14.6764 39.6337 15.6466 40.6039 17.4706 40.6039H19.6439C21.4679 40.6039 22.4381 39.6337 22.4381 37.8097V27.8748C22.4381 26.0508 21.4678 25.4444 19.6438 25.4444H17.4705C15.6465 25.4444 14.6764 26.0508 14.6764 27.8748V37.8097ZM18.0333 38.1008C17.5288 38.1008 17.2572 37.8485 17.2572 37.3246V28.3599C17.2572 27.8554 17.5288 27.5837 18.0333 27.5837H19.1588C19.6633 27.5837 19.9349 27.8554 19.9349 28.3599V37.3246C19.9349 37.8485 19.6633 38.1008 19.1588 38.1008H18.0333Z" fill="white"/>
<path d="M32.1402 27.8748C32.1402 26.0508 31.2467 25.4444 29.4227 25.4444H24.5522C24.3582 25.4444 24.2417 25.5608 24.2417 25.7548L24.2418 40.2935C24.2418 40.4875 24.3583 40.6039 24.5523 40.6039H26.5704C26.7644 40.6039 26.8808 40.4875 26.8808 40.2935V35.4036H28.2197L29.5198 40.3323C29.5586 40.5069 29.6556 40.6039 29.8497 40.6039H31.8677C32.0812 40.6039 32.1976 40.4875 32.1394 40.2547L30.8005 35.1708C31.7319 34.7633 32.1402 33.9095 32.1402 32.6094V27.8748ZM26.8808 32.8423V27.6419H28.8018C29.3064 27.6419 29.578 27.9136 29.578 28.4181V32.0661C29.578 32.5706 29.3064 32.8423 28.8018 32.8423H26.8808Z" fill="white"/>
<path d="M42.4574 40.6039C42.7679 40.6039 42.8843 40.4099 42.7485 40.1576L39.2363 32.3183L42.5349 25.9101C42.6708 25.6384 42.5543 25.4444 42.2633 25.4444H40.2258C40.0124 25.4444 39.8765 25.5414 39.7795 25.7354L36.7914 31.484L36.7913 25.8325C36.7913 25.5802 36.6554 25.4444 36.4032 25.4444H34.5404C34.2881 25.4444 34.1523 25.5802 34.1523 25.8325L34.1524 40.2159C34.1524 40.4681 34.2882 40.6039 34.5405 40.6039H36.4033C36.6556 40.6039 36.7914 40.4681 36.7914 40.2159V35.9275L37.5093 34.5498L39.9543 40.3129C40.0319 40.5069 40.1677 40.6039 40.4006 40.6039H42.4574Z" fill="white"/>
<path d="M44.7625 25.4444C44.5491 25.4444 44.4521 25.5608 44.4521 25.7548L44.4522 40.2935C44.4522 40.4875 44.5492 40.6039 44.7626 40.6039H46.7807C46.9747 40.6039 47.0911 40.4875 47.0911 40.2935L47.091 25.7548C47.091 25.5608 46.9746 25.4444 46.7806 25.4444H44.7625Z" fill="white"/>
<path d="M54.6714 25.4444C54.4579 25.4444 54.3609 25.5608 54.3609 25.7548L54.361 33.5796H54.2446L51.295 25.6966C51.2368 25.522 51.1204 25.4444 50.9458 25.4444H49.0247C48.8307 25.4444 48.7143 25.5608 48.7143 25.7548L48.7144 40.2935C48.7144 40.4875 48.8308 40.6039 49.0248 40.6039H51.0429C51.2563 40.6039 51.3533 40.4875 51.3533 40.2935V32.0661H51.4504L54.4192 40.3517C54.4774 40.5263 54.5938 40.6039 54.7685 40.6039H56.6895C56.8835 40.6039 57 40.4875 57 40.2935L56.9999 25.7548C56.9999 25.5608 56.8835 25.4444 56.6894 25.4444H54.6714Z" fill="white"/>
<path d="M0.798383 22.4362C0.564191 22.4362 0.372579 22.3614 0.223547 22.2118C0.0745158 22.0622 0 21.8699 0 21.6349V0.801292C0 0.566246 0.0745158 0.373936 0.223547 0.224362C0.372579 0.0747873 0.564191 0 0.798383 0H3.85254C4.17189 0 4.40608 0.0747873 4.55511 0.224362C4.70415 0.373936 4.79995 0.491459 4.84253 0.57693L13.3693 13.9425V0.801292C13.3693 0.566246 13.4438 0.373936 13.5928 0.224362C13.7418 0.0747873 13.9228 0 14.1357 0H17.3931C17.6273 0 17.8189 0.0747873 17.9679 0.224362C18.117 0.373936 18.1915 0.566246 18.1915 0.801292V21.6349C18.1915 21.8485 18.117 22.0409 17.9679 22.2118C17.8189 22.3614 17.6273 22.4362 17.3931 22.4362H14.4551C14.1357 22.4362 13.9015 22.3614 13.7525 22.2118C13.6247 22.0409 13.5289 21.9233 13.4651 21.8592L4.97027 8.91036V21.6349C4.97027 21.8699 4.89576 22.0622 4.74673 22.2118C4.5977 22.3614 4.40608 22.4362 4.17189 22.4362H0.798383Z" fill="white"/>
<path d="M21.4154 22.4362C21.1812 22.4362 20.9896 22.3614 20.8406 22.2118C20.6915 22.0622 20.617 21.8699 20.617 21.6349V0.801292C20.617 0.566246 20.6915 0.373936 20.8406 0.224362C20.9896 0.0747873 21.1812 0 21.4154 0H35.5845C35.8187 0 36.0103 0.0747873 36.1593 0.224362C36.3084 0.373936 36.3829 0.566246 36.3829 0.801292V3.44339C36.3829 3.67843 36.3084 3.87074 36.1593 4.02032C36.0103 4.16989 35.8187 4.24468 35.5845 4.24468H25.5989V9.70212H35.0198C35.254 9.70212 35.4456 9.77691 35.5947 9.92649C35.7437 10.0761 35.8182 10.2684 35.8182 10.5034V13.1776C35.8182 13.3912 35.7437 13.5729 35.5947 13.7224C35.4456 13.872 35.254 13.9468 35.0198 13.9468H25.5989V21.6349C25.5989 21.8699 25.5244 22.0622 25.3754 22.2118C25.2263 22.3614 25.0347 22.4362 24.8005 22.4362H21.4154Z" fill="white"/>
<path d="M46.1855 22.4362C45.9513 22.4362 45.7597 22.3614 45.6107 22.2118C45.4616 22.0622 45.3871 21.8699 45.3871 21.6349L45.3871 4.24468H39.5749C39.362 4.24468 39.181 4.16989 39.032 4.02032C38.8829 3.87074 38.8084 3.68912 38.8084 3.47544L38.8084 0.801292C38.8084 0.566246 38.8829 0.373936 39.032 0.224362C39.181 0.0747873 39.362 0 39.5749 0H56.2016C56.4358 0 56.6274 0.0747873 56.7764 0.224362C56.9255 0.373936 57 0.566246 57 0.801292L57 3.47544C57 3.68912 56.9255 3.87074 56.7764 4.02032C56.6274 4.16989 56.4358 4.24468 56.2016 4.24468H50.5287L50.5287 21.6349C50.5287 21.8699 50.4542 22.0622 50.3051 22.2118C50.1561 22.3614 49.9645 22.4362 49.7303 22.4362H46.1855Z" fill="white"/>
</svg>
