<svg width="40" height="40" viewBox="0 0 40 40" fill="none" xmlns="http://www.w3.org/2000/svg">
<path fill-rule="evenodd" clip-rule="evenodd" d="M29.9209 6C26.5714 6 23.3483 7.27926 20.9105 9.57631L19.3161 11.0786C18.6576 11.6991 18.029 12.3495 17.4322 13.0277H11.2753C10.524 13.0277 9.82781 13.4218 9.44126 14.0661L6.13063 19.5838C5.9781 19.838 5.95794 20.1503 6.0765 20.422C6.19507 20.6937 6.43772 20.8913 6.72782 20.9524L12.3155 22.1288C12.3628 22.1891 12.4152 22.2464 12.4725 22.3003L14.9121 24.5896L17.2 27.0277C17.2537 27.085 17.311 27.1372 17.3711 27.1845L18.5474 32.772C18.6085 33.0621 18.8061 33.3048 19.0778 33.4233C19.3496 33.5419 19.6618 33.5217 19.9161 33.3692L25.4338 30.0586C26.078 29.672 26.4722 28.9758 26.4722 28.2245V22.0681C27.1508 21.4708 27.8016 20.8417 28.4225 20.1827L29.9235 18.5894C32.2208 16.1507 33.4998 12.9265 33.4988 9.57617L33.4984 8.13826C33.4981 6.95723 32.5405 6 31.3595 6H29.9209ZM24.6389 23.5539C24.2324 23.8569 23.8178 24.1493 23.3954 24.4308L19.2471 27.1964L20.0763 31.135L24.4905 28.4865C24.5826 28.4313 24.6389 28.3318 24.6389 28.2245V23.5539ZM12.3041 20.2529L15.0703 16.1035C15.3516 15.6815 15.6438 15.2672 15.9465 14.861H11.2753C11.168 14.861 11.0686 14.9173 11.0133 15.0093L8.36481 19.4235L12.3041 20.2529ZM22.1678 10.9106C24.2654 8.93409 27.0388 7.83333 29.9209 7.83333H31.3595C31.5282 7.83333 31.665 7.97008 31.6651 8.1388L31.6655 9.57671C31.6663 12.4596 30.5658 15.2339 28.589 17.3323L27.088 18.9256C25.6742 20.4264 24.0942 21.7616 22.3785 22.9054L18.3598 25.5845L16.229 23.3139C16.2157 23.2997 16.202 23.286 16.1878 23.2727L13.9157 21.1405L16.5957 17.1205C17.7389 15.4057 19.0734 13.8263 20.5734 12.413L22.1678 10.9106ZM26.4721 14.861C26.4721 15.8735 25.6513 16.6943 24.6387 16.6943C23.6262 16.6943 22.8054 15.8735 22.8054 14.861C22.8054 13.8485 23.6262 13.0277 24.6387 13.0277C25.6513 13.0277 26.4721 13.8485 26.4721 14.861ZM9.73516 31.2195C9.10567 31.3656 8.49063 31.4536 7.99358 31.5063C8.04628 31.0093 8.13423 30.3944 8.28034 29.7649C8.53436 28.6706 8.92502 27.7114 9.45727 27.1791C9.78637 26.85 10.3087 26.6472 10.8891 26.6472C11.4694 26.6472 11.9918 26.8501 12.3209 27.1792C12.65 27.5083 12.8528 28.0306 12.8528 28.6109C12.8528 29.1913 12.6499 29.7136 12.3208 30.0427C11.7887 30.5748 10.8296 30.9655 9.73516 31.2195ZM8.04306 25.7649C7.0979 26.7101 6.60551 28.135 6.33214 29.3127C6.04995 30.5284 5.95963 31.6728 5.9307 32.2162C5.88993 32.982 6.51805 33.6101 7.28388 33.5693C7.82729 33.5403 8.97171 33.4499 10.1874 33.1677C11.3651 32.8943 12.79 32.402 13.735 31.4569C14.5057 30.6862 14.8528 29.6196 14.8528 28.611C14.8528 27.6023 14.5058 26.5357 13.7351 25.765C12.9644 24.9943 11.8977 24.6472 10.8891 24.6472C9.88043 24.6472 8.81376 24.9942 8.04306 25.7649Z" fill="#6D7582"/>
</svg>
