<svg width="17" height="14" viewBox="0 0 17 14" fill="none" xmlns="http://www.w3.org/2000/svg">
<path d="M15.2535 3.48904C15.2647 3.64253 15.2647 3.79514 15.2647 3.94775C15.2647 8.61822 11.7586 14 5.35121 14C3.37716 14 1.54325 13.4202 0 12.4134C0.280277 12.4458 0.550173 12.4572 0.841696 12.4572C2.41003 12.4611 3.93395 11.9293 5.16782 10.9477C4.44068 10.9344 3.73579 10.6912 3.15159 10.252C2.56739 9.81282 2.13303 9.19963 1.90917 8.49806C2.12457 8.53051 2.34083 8.55244 2.56747 8.55244C2.87976 8.55244 3.19377 8.50858 3.48529 8.43228C2.69616 8.27073 1.98657 7.83704 1.47718 7.20496C0.967789 6.57288 0.690046 5.78142 0.691176 4.96517V4.92131C1.15571 5.18356 1.69464 5.34757 2.26557 5.3695C1.78727 5.04725 1.39509 4.60997 1.124 4.09667C0.852906 3.58337 0.711343 3.01002 0.711938 2.42777C0.711938 1.77171 0.884083 1.17003 1.18599 0.645534C2.06154 1.73752 3.15355 2.63086 4.39129 3.26771C5.62904 3.90456 6.98491 4.27071 8.37111 4.34244C8.31747 4.07931 8.2846 3.80654 8.2846 3.53289C8.28437 3.06888 8.37435 2.60937 8.54937 2.18064C8.7244 1.7519 8.98106 1.36235 9.30466 1.03425C9.62826 0.706141 10.0125 0.445919 10.4353 0.268456C10.8582 0.0909935 11.3114 -0.000230128 11.769 4.35966e-07C12.7725 4.35966e-07 13.6782 0.426263 14.3149 1.11565C15.095 0.962702 15.843 0.67397 16.526 0.262248C16.2659 1.07865 15.7212 1.77092 14.9939 2.20937C15.6858 2.12936 16.362 1.94489 17 1.66207C16.5235 2.36646 15.933 2.98414 15.2535 3.48904V3.48904Z" fill="#6D7582"/>
</svg>
