<svg width="18" height="14" viewBox="0 0 18 14" fill="none" xmlns="http://www.w3.org/2000/svg">
<path d="M17.6338 2.20112C17.5314 1.77888 17.3312 1.39382 17.0532 1.08424C16.7751 0.774674 16.429 0.551395 16.0491 0.436633C14.6407 0.00700138 9.00623 7.59e-06 9.00623 7.59e-06C9.00623 7.59e-06 3.37262 -0.00698661 1.96331 0.403661C1.58371 0.523704 1.23826 0.750141 0.960131 1.06123C0.681998 1.37232 0.480518 1.75762 0.375036 2.18014C0.00359894 3.74479 1.3177e-06 6.99001 1.3177e-06 6.99001C1.3177e-06 6.99001 -0.00359612 10.2512 0.365143 11.7999C0.571997 12.6561 1.17907 13.3326 1.95072 13.5634C3.37352 13.993 8.99274 14 8.99274 14C8.99274 14 14.6273 14.007 16.0357 13.5973C16.4156 13.4828 16.7621 13.26 17.0408 12.9511C17.3196 12.6421 17.5209 12.2577 17.6248 11.8359C17.9972 10.2722 17.9999 7.02798 17.9999 7.02798C17.9999 7.02798 18.0179 3.76578 17.6338 2.20112V2.20112ZM7.20391 9.99643L7.2084 4.00157L11.8914 7.004L7.20391 9.99643V9.99643Z" fill="#6D7582"/>
</svg>
